<svg xmlns="http://www.w3.org/2000/svg" width="147" height="34" viewBox="0 0 147 34">
    <path fill="#FFF" fill-rule="evenodd" d="M0 7.704h9.504c1.104 0 2.214.078 3.33.234 1.116.156 2.118.468 3.006.936A5.756 5.756 0 0 1 18 10.836c.552.84.828 1.956.828 3.348 0 1.44-.402 2.634-1.206 3.582-.804.948-1.866 1.626-3.186 2.034v.072c.84.12 1.602.354 2.286.702a6.106 6.106 0 0 1 1.764 1.332c.492.54.87 1.17 1.134 1.89a6.64 6.64 0 0 1 .396 2.304c0 1.344-.288 2.466-.864 3.366a6.792 6.792 0 0 1-2.232 2.178c-.912.552-1.938.948-3.078 1.188s-2.274.36-3.402.36H0V7.704zm5.616 10.188h4.068c.432 0 .858-.048 1.278-.144.42-.096.798-.252 1.134-.468.336-.216.606-.504.81-.864.204-.36.306-.792.306-1.296 0-.528-.114-.966-.342-1.314a2.38 2.38 0 0 0-.882-.81 4.203 4.203 0 0 0-1.224-.414 7.346 7.346 0 0 0-1.332-.126H5.616v5.436zm0 10.548h5.04c.432 0 .87-.048 1.314-.144a3.477 3.477 0 0 0 1.206-.504c.36-.24.654-.552.882-.936.228-.384.342-.852.342-1.404 0-.6-.15-1.086-.45-1.458a2.853 2.853 0 0 0-1.134-.846 5.808 5.808 0 0 0-1.476-.396 10.966 10.966 0 0 0-1.476-.108H5.616v5.796zm17.64-20.736h5.616v25.488h-5.616V7.704zm2.988-1.656c-.432 0-.828-.084-1.188-.252a2.947 2.947 0 0 1-.936-.684 3.395 3.395 0 0 1-.63-.99 2.995 2.995 0 0 1-.234-1.17c0-.384.078-.756.234-1.116A2.99 2.99 0 0 1 24.12.9c.264-.264.57-.48.918-.648A2.574 2.574 0 0 1 26.172 0c.84 0 1.572.276 2.196.828.624.552.936 1.26.936 2.124 0 .864-.288 1.596-.864 2.196-.576.6-1.308.9-2.196.9zm7.74 1.656h7.632l10.836 17.712h.072V7.704h5.616v25.488h-7.344L39.672 15.048H39.6v18.144h-5.616V7.704zm37.728 0h4.644l11.088 25.488h-6.336l-2.196-5.4h-9.9l-2.124 5.4h-6.192L71.712 7.704zm2.16 7.416l-3.096 7.92h6.228l-3.132-7.92zm15.552 14.976c0-.456.084-.888.252-1.296.168-.408.402-.762.702-1.062.3-.3.654-.534 1.062-.702a3.37 3.37 0 0 1 1.296-.252c.456 0 .888.084 1.296.252.408.168.762.402 1.062.702.3.3.534.654.702 1.062.168.408.252.84.252 1.296 0 .456-.084.888-.252 1.296a3.215 3.215 0 0 1-.702 1.062c-.3.3-.654.534-1.062.702a3.37 3.37 0 0 1-1.296.252 3.37 3.37 0 0 1-1.296-.252 3.215 3.215 0 0 1-1.062-.702c-.3-.3-.534-.654-.702-1.062a3.37 3.37 0 0 1-.252-1.296zm19.62-22.392h4.644l11.088 25.488h-6.336l-2.196-5.4h-9.9l-2.124 5.4h-6.192l11.016-25.488zm2.16 7.416l-3.096 7.92h6.228l-3.132-7.92zM126 28.008l12.924-15.336h-12.456V7.704h19.26v4.968l-12.672 15.336h13.104v5.184H126v-5.184z"/>
</svg>
